<svg width="960" height="640" viewBox="0 0 960 640" fill="none" xmlns="http://www.w3.org/2000/svg">
  <rect width="960" height="640" rx="40" fill="#F4F9FF"/>
  <rect x="120" y="120" width="720" height="400" rx="28" fill="#FFFFFF" stroke="#C9DAEE" stroke-width="4"/>
  <rect x="160" y="160" width="640" height="80" rx="16" fill="#0D62FF" opacity="0.12"/>
  <rect x="200" y="184" width="180" height="32" rx="16" fill="#FFFFFF" stroke="#0D62FF" stroke-width="4"/>
  <rect x="420" y="184" width="120" height="32" rx="16" fill="#0D62FF" opacity="0.5"/>
  <rect x="560" y="184" width="180" height="32" rx="16" fill="#F97316" opacity="0.35"/>
  <polyline points="200,300 320,260 440,310 560,270 680,320" stroke="#0D62FF" stroke-width="10" fill="none" stroke-linecap="round" stroke-linejoin="round"/>
  <circle cx="200" cy="300" r="16" fill="#0D62FF"/>
  <circle cx="320" cy="260" r="16" fill="#0D62FF"/>
  <circle cx="440" cy="310" r="16" fill="#0D62FF"/>
  <circle cx="560" cy="270" r="16" fill="#0D62FF"/>
  <circle cx="680" cy="320" r="16" fill="#0D62FF"/>
  <rect x="180" y="360" width="600" height="120" rx="20" fill="#EDF2FF"/>
  <rect x="210" y="392" width="180" height="48" rx="14" fill="#FFFFFF" stroke="#0D62FF" stroke-width="3"/>
  <rect x="410" y="392" width="230" height="48" rx="14" fill="#FFFFFF" stroke="#0D62FF" stroke-width="3"/>
  <rect x="660" y="392" width="90" height="48" rx="14" fill="#0D62FF" opacity="0.2"/>
  <g transform="translate(700 452)">
    <path d="M-18 -6H18L12 18H-24L-18 -6Z" fill="#0D62FF" opacity="0.28"/>
    <path d="M-6 -6H6L0 18H-12L-6 -6Z" fill="#0D62FF"/>
  </g>
</svg>
