<svg width="960" height="640" viewBox="0 0 960 640" fill="none" xmlns="http://www.w3.org/2000/svg">
  <rect width="960" height="640" rx="40" fill="#F8F9FF"/>
  <rect x="140" y="120" width="680" height="400" rx="30" fill="#FFFFFF" stroke="#D9E3F5" stroke-width="4"/>
  <g transform="translate(240 208)">
    <rect x="-40" y="-40" width="240" height="200" rx="24" fill="#EDF2FF"/>
    <circle cx="40" cy="24" r="16" fill="#0D62FF"/>
    <circle cx="120" cy="24" r="16" fill="#0D62FF"/>
    <path d="M16 80H144" stroke="#0D62FF" stroke-width="10" stroke-linecap="round"/>
  </g>
  <g transform="translate(520 196)">
    <rect x="-20" y="-12" width="320" height="64" rx="18" fill="#0D62FF" opacity="0.12"/>
    <rect x="-4" y="-2" width="136" height="44" rx="12" fill="#FFFFFF" stroke="#0D62FF" stroke-width="3"/>
  </g>
  <g transform="translate(540 280)">
    <rect x="-20" y="-12" width="300" height="60" rx="18" fill="#0D62FF" opacity="0.12"/>
    <rect x="120" y="-2" width="136" height="40" rx="12" fill="#F97316" opacity="0.32"/>
  </g>
  <rect x="520" y="356" width="260" height="64" rx="18" fill="#EDF2FF"/>
  <g transform="translate(650 388)">
    <path d="M-12 -12H12L18 12H-6L-12 -12Z" fill="#0D62FF"/>
    <circle cx="36" cy="0" r="12" fill="#0D62FF" opacity="0.28"/>
  </g>
  <rect x="180" y="360" width="120" height="32" rx="16" fill="#0D62FF" opacity="0.18"/>
  <rect x="180" y="408" width="200" height="32" rx="16" fill="#0D62FF" opacity="0.18"/>
  <rect x="180" y="456" width="260" height="32" rx="16" fill="#0D62FF" opacity="0.18"/>
</svg>
